<svg width="32" height="32" viewBox="0 0 32 32" fill="none" xmlns="http://www.w3.org/2000/svg">
<g clip-path="url(#clip0_36_148)">
<path d="M10.9856 27.1448V17.4493C10.9856 16.5921 10.6451 15.7701 10.039 15.164C9.4329 14.5579 8.61087 14.2174 7.75373 14.2174H4.52188C3.66474 14.2174 2.84271 14.5579 2.23662 15.164C1.63054 15.7701 1.29004 16.5921 1.29004 17.4493V27.1448C1.29004 28.0019 1.63054 28.824 2.23662 29.43C2.84271 30.0361 3.66474 30.3766 4.52188 30.3766H7.75373C8.61087 30.3766 9.4329 30.0361 10.039 29.43C10.6451 28.824 10.9856 28.0019 10.9856 27.1448ZM10.9856 27.1448V10.9856C10.9856 10.1284 11.3261 9.3064 11.9322 8.70031C12.5382 8.09422 13.3603 7.75373 14.2174 7.75373H17.4493C18.3064 7.75373 19.1284 8.09422 19.7345 8.70031C20.3406 9.3064 20.6811 10.1284 20.6811 10.9856V27.1448M10.9856 27.1448C10.9856 28.0019 11.3261 28.824 11.9322 29.43C12.5382 30.0361 13.3603 30.3766 14.2174 30.3766H17.4493C18.3064 30.3766 19.1284 30.0361 19.7345 29.43C20.3406 28.824 20.6811 28.0019 20.6811 27.1448M20.6811 27.1448V4.52188C20.6811 3.66474 21.0216 2.84271 21.6277 2.23662C22.2338 1.63054 23.0558 1.29004 23.9129 1.29004H27.1448C28.0019 1.29004 28.824 1.63054 29.43 2.23662C30.0361 2.84271 30.3766 3.66474 30.3766 4.52188V27.1448C30.3766 28.0019 30.0361 28.824 29.43 29.43C28.824 30.0361 28.0019 30.3766 27.1448 30.3766H23.9129C23.0558 30.3766 22.2338 30.0361 21.6277 29.43C21.0216 28.824 20.6811 28.0019 20.6811 27.1448Z" stroke="#7CD591" stroke-width="2" stroke-linecap="round" stroke-linejoin="round"/>
</g>
<defs>
<clipPath id="clip0_36_148">
<rect width="31.6667" height="31.6667" fill="white"/>
</clipPath>
</defs>
</svg>
