<svg width="32" height="32" viewBox="0 0 32 32" fill="none" xmlns="http://www.w3.org/2000/svg">
<g clip-path="url(#clip0_36_122)">
<path d="M13.0028 2.8496C13.7227 -0.117916 17.9441 -0.117916 18.664 2.8496C18.772 3.2954 18.9838 3.7094 19.282 4.0579C19.5803 4.40639 19.9566 4.67955 20.3804 4.85511C20.8042 5.03068 21.2634 5.10371 21.7207 5.06825C22.1781 5.0328 22.6206 4.88985 23.0122 4.65106C25.6198 3.06253 28.6059 6.04694 27.0173 8.65619C26.7789 9.04767 26.6362 9.4899 26.6008 9.94692C26.5654 10.4039 26.6384 10.8629 26.8137 11.2864C26.9891 11.7099 27.2619 12.086 27.61 12.3843C27.9581 12.6825 28.3717 12.8944 28.8171 13.0027C31.7846 13.7226 31.7846 17.944 28.8171 18.664C28.3713 18.772 27.9573 18.9837 27.6088 19.282C27.2603 19.5802 26.9872 19.9566 26.8116 20.3803C26.636 20.8041 26.563 21.2633 26.5984 21.7207C26.6339 22.178 26.7768 22.6205 27.0156 23.0121C28.6042 25.6197 25.6198 28.6058 23.0105 27.0173C22.619 26.7788 22.1768 26.6361 21.7198 26.6007C21.2628 26.5654 20.8039 26.6383 20.3803 26.8137C19.9568 26.989 19.5807 27.2619 19.2824 27.61C18.9842 27.9581 18.7723 28.3716 18.664 28.817C17.9441 31.7846 13.7227 31.7846 13.0028 28.817C12.8947 28.3712 12.683 27.9572 12.3847 27.6087C12.0865 27.2602 11.7101 26.9871 11.2864 26.8115C10.8626 26.636 10.4034 26.5629 9.94603 26.5984C9.4887 26.6338 9.04621 26.7768 8.65456 27.0156C6.047 28.6041 3.0609 25.6197 4.64943 23.0104C4.88788 22.619 5.0306 22.1767 5.06597 21.7197C5.10135 21.2627 5.02839 20.8038 4.85302 20.3803C4.67766 19.9568 4.40483 19.5806 4.05673 19.2824C3.70863 18.9841 3.29506 18.7723 2.84966 18.664C-0.117855 17.944 -0.117855 13.7226 2.84966 13.0027C3.29546 12.8947 3.70946 12.6829 4.05796 12.3847C4.40646 12.0864 4.67961 11.7101 4.85518 11.2863C5.03075 10.8625 5.10377 10.4033 5.06831 9.94597C5.03286 9.48864 4.88991 9.04615 4.65112 8.6545C3.06259 6.04694 6.047 3.06084 8.65625 4.64937C10.3394 5.67685 12.5363 4.76767 13.0028 2.8496Z" stroke="#9837F3" stroke-width="2" stroke-linecap="round" stroke-linejoin="round"/>
<path d="M20.903 15.8333C20.903 17.1779 20.3689 18.4674 19.4181 19.4182C18.4673 20.369 17.1778 20.9031 15.8332 20.9031C14.4886 20.9031 13.1991 20.369 12.2483 19.4182C11.2976 18.4674 10.7634 17.1779 10.7634 15.8333C10.7634 14.4887 11.2976 13.1992 12.2483 12.2485C13.1991 11.2977 14.4886 10.7635 15.8332 10.7635C17.1778 10.7635 18.4673 11.2977 19.4181 12.2485C20.3689 13.1992 20.903 14.4887 20.903 15.8333Z" stroke="#9837F3" stroke-width="2" stroke-linecap="round" stroke-linejoin="round"/>
</g>
<defs>
<clipPath id="clip0_36_122">
<rect width="31.6667" height="31.6667" fill="white"/>
</clipPath>
</defs>
</svg>
