<svg width="477" height="75" viewBox="0 0 477 75" fill="none" xmlns="http://www.w3.org/2000/svg">
<path d="M177.464 63.5454V41.7272C177.464 39.3409 179.1 37.9772 181.212 37.9772L185.846 37.4318V31.9772H152.456V37.4318L157.226 37.9772C159.27 37.9772 160.974 39.4772 160.974 41.5227V48.6818H134.875V41.6591C134.875 39.6136 136.238 38.1136 138.282 38.1136L143.325 37.4318V31.9772H109.935V37.4318L114.977 38.1136C117.022 38.1136 118.385 39.6818 118.385 41.7954V64.0227C118.385 66.0681 117.022 67.4318 114.977 67.4318L110.003 67.9772V73.4318H143.393V67.9772L138.282 67.4318C136.102 67.1591 135.011 66.0681 135.011 64.0227V56.8636H160.906V63.6818C160.906 65.7272 159.407 67.2954 157.294 67.2954L152.388 67.7727V73.3636H185.778V67.7045L181.212 67.4318C178.487 67.2954 177.464 65.5909 177.464 63.5454ZM304.551 37.4318L309.185 37.9091C311.229 37.9091 312.796 39.1363 312.796 41.1818V62.8636L291.604 34.7045L291.263 34.0227C290.173 32.6591 289.491 31.8409 287.174 31.8409H257.873V37.2954L262.643 37.9772C264.96 38.1136 266.255 39.3409 266.255 41.3863V63.6136C266.255 65.6591 265.232 67.0227 262.847 67.2954L257.873 67.7727V73.3636H284.108V67.7045L279.815 67.2954C277.771 67.2954 276.067 66.0681 276.067 64.0227V42.4772L297.6 70.9772C298.759 72.4772 299.781 73.4318 301.689 73.4318H322.813V41.25C322.813 39.2045 324.312 37.8409 326.357 37.8409L330.445 37.3636V31.9091H304.551V37.3636V37.4318ZM221.553 30.4091C200.429 30.0681 187.686 38.0454 187.481 52.5681C187.481 67.3636 200.429 75.2045 221.757 74.8636C242.745 75.2045 255.42 67.5 255.829 53.1818V53.1136C255.829 38.25 242.882 30.0681 221.553 30.4091ZM236.749 54.4772C236.749 62.6591 230.957 66.8863 224.21 66.8863H218.895C212.081 66.8863 206.902 61.9091 206.902 54.4772V50.8636C206.902 43.7045 212.013 38.25 219.44 38.25H223.665C231.161 38.25 236.817 43.0227 236.817 50.8636V54.4772H236.749ZM378.009 31.9772H334.397V37.4318L339.031 37.9772C340.939 38.1818 342.234 39.1363 342.234 41.1818V64.0227C342.234 66.0681 341.007 67.1591 338.827 67.4318L333.852 67.7045V73.4318H377.941C391.024 73.4318 402.949 66.8181 402.949 52.7045C402.949 39.0681 391.706 31.9772 378.009 31.9772ZM373.58 65.3863H358.588V39.8181H373.58C377.804 39.8181 383.12 41.1818 383.12 52.7727C383.12 64.3636 377.804 65.5227 373.58 65.5227V65.3863Z" fill="white"/>
<path d="M474.227 67.4319C472.046 67.4319 470.411 66.2046 469.32 64.5682L450.785 36.0682L449.423 34.2273C448.332 32.5909 447.174 31.9773 445.061 31.9773H413.579V37.4319L420.053 38.25C421.688 38.5228 422.915 38.7955 422.915 40.4319C422.915 41.1137 422.506 41.9319 422.234 42.4773L408.264 64.9773C407.174 66.6137 406.22 67.2273 403.835 67.4319L399.065 67.7728V73.5H425.641V67.7046L422.097 67.3637C420.734 67.3637 419.372 66.6819 419.372 65.3182C419.372 64.8409 419.508 64.4319 419.712 63.9546L421.893 60.5455H447.651L449.014 63C449.014 63 450.172 64.2273 449.831 66C449.627 67.0909 447.515 67.3637 447.515 67.3637L442.063 67.7046V73.4319H476.952V67.6364L474.227 67.2955V67.4319ZM426.527 53.3864L434.363 40.4319L442.676 53.3864H426.527ZM8.402 53.7955L9.76486 54.9546L30.0714 49.7046C29.6626 49.5682 29.5263 48.4773 30.2077 48.2046L31.5706 47.7955L86.7663 32.7955C93.9894 31.2955 95.216 27.4773 96.7151 24.75L99.8497 19.0909L9.49229 49.0228C5.94886 50.3864 7.448 52.9091 8.402 53.7955ZM15.6251 60.4091L39.8159 55.6364C39.407 55.5 39.2707 54.4091 39.9521 54.1364C40.6336 53.9319 77.9759 46.8409 77.9759 46.8409C83.768 45.75 85.2672 43.8409 86.3574 42.3409L91.1274 35.5228L10.8551 55.9773L15.6251 60.4091ZM22.4394 66.6137L51.5364 62.7955C50.855 62.5228 50.9913 61.5682 51.6727 61.2955C52.3541 61.0228 68.7084 58.5682 68.7084 58.5682C72.1156 57.8864 73.751 57 75.7953 54.9546C77.9759 52.7728 80.906 49.5 80.906 49.5L16.6473 61.2955L22.4394 66.75V66.6137ZM23.4616 67.7046L29.5944 73.3637H68.4359L53.5807 64.2955" fill="white"/>
<path d="M6.56214 42.2045C-2.97786 46.0909 -0.252147 54.3409 3.155 57.2045L13.7171 67.8409C17.2606 71.25 17.6013 73.2955 17.6013 73.2955H26.8687L7.17543 55.1591C3.76828 51.4091 5.40371 48.4773 8.33385 47.25C8.33385 47.25 61.7579 28.5682 95.8974 16.3636C102.712 14.0455 104.415 9.54545 107.822 0C107.822 0 98.2824 4.90909 82.4733 11.5909C76.7493 14.1136 33.0697 31.6364 6.63028 42.2727L6.56214 42.2045Z" fill="white"/>
</svg>
