<svg width="336" height="41" viewBox="0 0 336 41" fill="none" xmlns="http://www.w3.org/2000/svg">
<path d="M61.7739 30.3044V10.3572C61.7739 8.17547 63.27 6.92877 65.2024 6.92877L69.4411 6.43009V1.4433H38.897V6.43009L43.2605 6.92877C45.1305 6.92877 46.6889 8.30014 46.6889 10.1702V16.7154H22.8146V10.2949C22.8146 8.42481 24.0613 7.05344 25.9313 7.05344L30.5441 6.43009V1.4433H0V6.43009L4.61279 7.05344C6.48284 7.05344 7.72954 8.48715 7.72954 10.4195V30.7407C7.72954 32.6108 6.48284 33.8575 4.61279 33.8575L0.0623388 34.3562V39.343H30.6065V34.3562L25.9313 33.8575C23.9366 33.6081 22.9393 32.6108 22.9393 30.7407V24.1956H46.6266V30.4291C46.6266 32.2991 45.2552 33.7328 43.3228 33.7328L38.8347 34.1692V39.2806H69.3788V34.1068L65.2024 33.8575C62.709 33.7328 61.7739 32.1744 61.7739 30.3044ZM178.029 6.43009L182.267 6.86644C184.137 6.86644 185.571 7.98847 185.571 9.85852V29.681L166.185 3.9367L165.873 3.31335C164.876 2.06665 164.253 1.31863 162.133 1.31863H135.329V6.30542L139.693 6.92877C141.812 7.05344 142.996 8.17547 142.996 10.0455V30.3667C142.996 32.2368 142.061 33.4835 139.88 33.7328L135.329 34.1692V39.2806H159.328V34.1068L155.401 33.7328C153.531 33.7328 151.973 32.6108 151.973 30.7407V11.0429L171.67 37.0989C172.73 38.4703 173.665 39.343 175.411 39.343H194.734V9.92085C194.734 8.0508 196.106 6.8041 197.976 6.8041L201.716 6.36776V1.38096H178.029V6.36776V6.43009ZM102.105 0.00959416C82.7808 -0.302081 71.1242 6.99111 70.9372 20.2685C70.9372 33.7951 82.7808 40.9637 102.292 40.652C121.491 40.9637 133.085 33.9198 133.459 20.8295V20.7671C133.459 7.17812 121.616 -0.302081 102.105 0.00959416ZM116.005 22.0138C116.005 29.494 110.707 33.3588 104.536 33.3588H99.6736C93.4401 33.3588 88.7027 28.8083 88.7027 22.0138V18.7101C88.7027 12.1649 93.3778 7.17811 100.172 7.17811H104.037C110.894 7.17811 116.068 11.5416 116.068 18.7101V22.0138H116.005ZM245.226 1.4433H205.331V6.43009L209.57 6.92877C211.316 7.11578 212.5 7.98847 212.5 9.85852V30.7407C212.5 32.6108 211.378 33.6081 209.383 33.8575L204.833 34.1068V39.343H245.163C257.132 39.343 268.04 33.2965 268.04 20.3931C268.04 7.92614 257.755 1.4433 245.226 1.4433ZM241.174 31.9874H227.46V8.61182H241.174C245.039 8.61182 249.901 9.85852 249.901 20.4555C249.901 31.0524 245.039 32.1121 241.174 32.1121V31.9874Z" fill="white"/>
<path d="M333.243 33.8575C331.248 33.8575 329.752 32.7354 328.755 31.2394L311.8 5.18337L310.553 3.50032C309.555 2.00428 308.496 1.44327 306.563 1.44327H277.765V6.43006L283.686 7.17809C285.183 7.42743 286.305 7.67677 286.305 9.1728C286.305 9.79615 285.931 10.5442 285.681 11.0429L272.903 31.6134C271.905 33.1094 271.032 33.6704 268.851 33.8575L264.487 34.1691V39.4053H288.798V34.1068L285.556 33.7951C284.31 33.7951 283.063 33.1718 283.063 31.9251C283.063 31.4887 283.188 31.1147 283.375 30.6784L285.37 27.5616H308.932L310.179 29.8057C310.179 29.8057 311.239 30.9277 310.927 32.5484C310.74 33.5458 308.807 33.7951 308.807 33.7951L303.821 34.1068V39.3429H335.736V34.0445L333.243 33.7328V33.8575ZM289.608 21.0165L296.777 9.1728L304.382 21.0165H289.608Z" fill="white"/>
</svg>
