<svg width="96" height="65" viewBox="0 0 96 65" fill="none" xmlns="http://www.w3.org/2000/svg">
<path d="M7.44841 47.6626L8.65659 48.6896L26.6584 44.0381C26.296 43.9173 26.1752 42.9508 26.7793 42.7091L27.9874 42.3467L76.9186 29.0567C83.322 27.7277 84.4093 24.3448 85.7383 21.9285L88.5171 16.9145L8.41496 43.434C5.27369 44.6422 6.60269 46.8773 7.44841 47.6626ZM13.8518 53.5223L35.2969 49.2937C34.9345 49.1729 34.8136 48.2063 35.4177 47.9647C36.0218 47.7835 69.1259 41.5009 69.1259 41.5009C74.2606 40.5344 75.5896 38.8429 76.5562 37.514L80.7848 31.4731L9.62313 49.5957L13.8518 53.5223ZM19.8926 59.0195L45.6872 55.6366C45.0831 55.395 45.204 54.5493 45.8081 54.3076C46.4121 54.066 60.9103 51.8913 60.9103 51.8913C63.9307 51.2872 65.3805 50.5019 67.1928 48.6896C69.1259 46.7565 71.7235 43.8569 71.7235 43.8569L14.7579 54.3076L19.8926 59.1403V59.0195ZM20.7988 59.9861L26.2356 65H60.6686L47.4995 56.9656" fill="white"/>
<path d="M5.81736 37.3931C-2.63988 40.8364 -0.223529 48.1459 2.79692 50.6831L12.1603 60.1068C15.3016 63.1273 15.6036 64.9396 15.6036 64.9396H23.8192L6.36104 48.8708C3.3406 45.5483 4.79041 42.9507 7.38799 41.8634C7.38799 41.8634 54.7486 25.3113 85.0134 14.4981C91.0543 12.4442 92.5645 8.45724 95.585 0C95.585 0 87.1277 4.34944 73.1129 10.2695C68.0385 12.5046 29.3164 28.0297 5.87777 37.4535L5.81736 37.3931Z" fill="white"/>
</svg>
