<svg width="477" height="75" viewBox="0 0 477 75" fill="none" xmlns="http://www.w3.org/2000/svg">
<g clip-path="url(#clip0_6_4)">
<path d="M177.512 63.6136V41.7955C177.512 39.4091 179.148 38.0455 181.26 38.0455L185.894 37.5V32.0455H152.504V37.5L157.274 38.0455C159.318 38.0455 161.022 39.5455 161.022 41.5909V48.75H134.923V41.7273C134.923 39.6818 136.286 38.1818 138.33 38.1818L143.373 37.5V32.0455H109.983V37.5L115.025 38.1818C117.069 38.1818 118.432 39.75 118.432 41.8636V64.0909C118.432 66.1364 117.069 67.5 115.025 67.5L110.051 68.0455V73.5H143.441V68.0455L138.33 67.5C136.149 67.2273 135.059 66.1364 135.059 64.0909V56.9318H160.953V63.75C160.953 65.7955 159.454 67.3636 157.342 67.3636L152.436 67.8409V73.4318H185.826V67.7727L181.26 67.5C178.534 67.3636 177.512 65.6591 177.512 63.6136ZM304.599 37.5L309.232 37.9773C311.277 37.9773 312.844 39.2045 312.844 41.25V62.9318L291.651 34.7727L291.311 34.0909C290.22 32.7273 289.539 31.9091 287.222 31.9091H257.921V37.3636L262.691 38.0455C265.008 38.1818 266.302 39.4091 266.302 41.4545V63.6818C266.302 65.7273 265.28 67.0909 262.895 67.3636L257.921 67.8409V73.4318H284.156V67.7727L279.863 67.3636C277.818 67.3636 276.115 66.1364 276.115 64.0909V42.5455L297.648 71.0455C298.806 72.5455 299.829 73.5 301.737 73.5H322.861V41.3182C322.861 39.2727 324.36 37.9091 326.404 37.9091L330.493 37.4318V31.9773H304.599V37.4318V37.5ZM221.601 30.4773C200.476 30.1364 187.734 38.1136 187.529 52.6364C187.529 67.4318 200.476 75.2727 221.805 74.9318C242.793 75.2727 255.468 67.5682 255.876 53.25V53.1818C255.876 38.3182 242.929 30.1364 221.601 30.4773ZM236.796 54.5455C236.796 62.7273 231.004 66.9545 224.258 66.9545H218.943C212.129 66.9545 206.95 61.9773 206.95 54.5455V50.9318C206.95 43.7727 212.061 38.3182 219.488 38.3182H223.713C231.209 38.3182 236.865 43.0909 236.865 50.9318V54.5455H236.796ZM378.057 32.0455H334.445V37.5L339.079 38.0455C340.987 38.25 342.282 39.2045 342.282 41.25V64.0909C342.282 66.1364 341.055 67.2273 338.874 67.5L333.9 67.7727V73.5H377.988C391.072 73.5 402.997 66.8864 402.997 52.7727C402.997 39.1364 391.753 32.0455 378.057 32.0455ZM373.627 65.4545H358.636V39.8864H373.627C377.852 39.8864 383.167 41.25 383.167 52.8409C383.167 64.4318 377.852 65.5909 373.627 65.5909V65.4545Z" fill="#CC0000"/>
<path d="M474.274 67.5C472.094 67.5 470.458 66.2727 469.368 64.6364L450.833 36.1364L449.47 34.2955C448.38 32.6591 447.222 32.0455 445.109 32.0455H413.627V37.5L420.101 38.3182C421.736 38.5909 422.963 38.8636 422.963 40.5C422.963 41.1818 422.554 42 422.281 42.5455L408.312 65.0455C407.222 66.6818 406.268 67.2955 403.883 67.5L399.113 67.8409V73.5682H425.688V67.7727L422.145 67.4318C420.782 67.4318 419.419 66.75 419.419 65.3864C419.419 64.9091 419.556 64.5 419.76 64.0227L421.941 60.6136H447.699L449.061 63.0682C449.061 63.0682 450.22 64.2955 449.879 66.0682C449.675 67.1591 447.562 67.4318 447.562 67.4318L442.111 67.7727V73.5H477V67.7045L474.274 67.3636V67.5ZM426.574 53.4546L434.411 40.5L442.724 53.4546H426.574ZM8.44972 53.8636L9.81257 55.0227L30.1191 49.7727C29.7103 49.6364 29.574 48.5455 30.2554 48.2727L31.6183 47.8636L86.814 32.8636C94.0371 31.3636 95.2637 27.5455 96.7629 24.8182L99.8974 19.1591L9.54 49.0909C5.99657 50.4545 7.49572 52.9773 8.44972 53.8636ZM15.6729 60.4773L39.8636 55.7045C39.4547 55.5682 39.3184 54.4773 39.9999 54.2046C40.6813 54 78.0236 46.9091 78.0236 46.9091C83.8157 45.8182 85.3149 43.9091 86.4052 42.4091L91.1752 35.5909L10.9029 56.0455L15.6729 60.4773ZM22.4871 66.6818L51.5841 62.8636C50.9027 62.5909 51.039 61.6364 51.7204 61.3636C52.4019 61.0909 68.7561 58.6364 68.7561 58.6364C72.1633 57.9545 73.7987 57.0682 75.843 55.0227C78.0236 52.8409 80.9537 49.5682 80.9537 49.5682L16.695 61.3636L22.4871 66.8182V66.6818ZM23.5093 67.7727L29.6421 73.4318H68.4836L53.6284 64.3636" fill="#CC0000"/>
<path d="M6.60987 42.2727C-2.93013 46.1591 -0.204417 54.4091 3.20273 57.2727L13.7649 67.9091C17.3083 71.3182 17.649 73.3636 17.649 73.3636H26.9164L7.22316 55.2273C3.81601 51.4773 5.45144 48.5455 8.38158 47.3182C8.38158 47.3182 61.8056 28.6364 95.9452 16.4318C102.759 14.1136 104.463 9.61364 107.87 0.0681839C107.87 0.0681839 98.3302 4.97727 82.521 11.6591C76.797 14.1818 33.1174 31.7045 6.67801 42.3409L6.60987 42.2727Z" fill="#CC0000"/>
</g>
<defs>
<clipPath id="clip0_6_4">
<rect width="477" height="75" fill="white"/>
</clipPath>
</defs>
</svg>
