<svg width="32" height="26" viewBox="0 0 32 26" fill="none" xmlns="http://www.w3.org/2000/svg">
<g clip-path="url(#clip0_36_156)">
<path d="M23.3255 25.0443H30.8228V22.0134C30.8227 21.0686 30.5314 20.1473 29.9893 19.3776C29.4472 18.6078 28.6813 18.0279 27.798 17.7184C26.9147 17.4089 25.958 17.3852 25.0607 17.6506C24.1635 17.916 23.3704 18.4573 22.7917 19.1993M23.3255 25.0443H8.33082M23.3255 25.0443V22.0134C23.3255 21.0193 23.1365 20.0692 22.7917 19.1993M22.7917 19.1993C22.2348 17.7929 21.2738 16.5874 20.0326 15.7383C18.7914 14.8891 17.327 14.4353 15.8281 14.4353C14.3293 14.4353 12.8648 14.8891 11.6236 15.7383C10.3825 16.5874 9.42146 17.7929 8.86463 19.1993M8.33082 25.0443H0.833496V22.0134C0.833564 21.0686 1.1249 20.1473 1.66699 19.3776C2.20909 18.6078 2.97501 18.0279 3.85829 17.7184C4.74157 17.4089 5.69832 17.3852 6.59555 17.6506C7.49277 17.916 8.28588 18.4573 8.86463 19.1993M8.33082 25.0443V22.0134C8.33082 21.0193 8.51975 20.0692 8.86463 19.1993M20.3265 5.34386C20.3265 6.5496 19.8526 7.70595 19.009 8.55854C18.1654 9.41113 17.0212 9.89011 15.8281 9.89011C14.6351 9.89011 13.4909 9.41113 12.6473 8.55854C11.8037 7.70595 11.3297 6.5496 11.3297 5.34386C11.3297 4.13812 11.8037 2.98176 12.6473 2.12917C13.4909 1.27659 14.6351 0.797607 15.8281 0.797607C17.0212 0.797607 18.1654 1.27659 19.009 2.12917C19.8526 2.98176 20.3265 4.13812 20.3265 5.34386ZM29.3233 9.89011C29.3233 10.6939 29.0074 11.4648 28.445 12.0332C27.8825 12.6016 27.1198 12.9209 26.3244 12.9209C25.529 12.9209 24.7662 12.6016 24.2038 12.0332C23.6414 11.4648 23.3255 10.6939 23.3255 9.89011C23.3255 9.08628 23.6414 8.31538 24.2038 7.74698C24.7662 7.17859 25.529 6.85927 26.3244 6.85927C27.1198 6.85927 27.8825 7.17859 28.445 7.74698C29.0074 8.31538 29.3233 9.08628 29.3233 9.89011ZM8.33082 9.89011C8.33082 10.6939 8.01486 11.4648 7.45245 12.0332C6.89004 12.6016 6.12726 12.9209 5.33189 12.9209C4.53652 12.9209 3.77373 12.6016 3.21133 12.0332C2.64892 11.4648 2.33296 10.6939 2.33296 9.89011C2.33296 9.08628 2.64892 8.31538 3.21133 7.74698C3.77373 7.17859 4.53652 6.85927 5.33189 6.85927C6.12726 6.85927 6.89004 7.17859 7.45245 7.74698C8.01486 8.31538 8.33082 9.08628 8.33082 9.89011Z" stroke="#EB7E7E" stroke-width="2" stroke-linecap="round" stroke-linejoin="round"/>
</g>
<defs>
<clipPath id="clip0_36_156">
<rect width="31.6562" height="25.8418" fill="white"/>
</clipPath>
</defs>
</svg>
