<svg width="32" height="32" viewBox="0 0 32 32" fill="none" xmlns="http://www.w3.org/2000/svg">
<g clip-path="url(#clip0_36_139)">
<path d="M14.2773 1.03693C11.5076 1.34646 8.88147 2.43179 6.70131 4.16799C4.52115 5.90418 2.87552 8.22069 1.95384 10.8509C1.03215 13.4811 0.871862 16.3181 1.49142 19.0354C2.11097 21.7527 3.48519 24.2398 5.45591 26.2105C7.42663 28.1812 9.91376 29.5555 12.631 30.175C15.3483 30.7946 18.1853 30.6343 20.8155 29.7126C23.4457 28.7909 25.7623 27.1453 27.4984 24.9651C29.2346 22.785 30.32 20.1589 30.6295 17.3891H14.2773V1.03693Z" stroke="#5937F3" stroke-width="2" stroke-linecap="round" stroke-linejoin="round"/>
<path d="M29.8782 10.8121H20.8545V1.78839C22.9351 2.52655 24.8248 3.71963 26.3859 5.2807C27.947 6.84177 29.14 8.73147 29.8782 10.8121Z" stroke="#5937F3" stroke-width="2" stroke-linecap="round" stroke-linejoin="round"/>
</g>
<defs>
<clipPath id="clip0_36_139">
<rect width="31.6667" height="31.6667" fill="white"/>
</clipPath>
</defs>
</svg>
